<mxfile host="app.diagrams.net" modified="2023-10-12T13:28:32.875Z" agent="Mozilla/5.0 (Windows NT 10.0; Win64; x64) AppleWebKit/537.36 (KHTML, like Gecko) Chrome/117.0.0.0 Safari/537.36" etag="azHnaFMtjSsxVbEBdymf" version="21.7.2" type="device">
  <diagram name="Page-1" id="AI4wICmcmxCiwkamHyNJ">
    <mxGraphModel dx="880" dy="425" grid="1" gridSize="10" guides="1" tooltips="1" connect="1" arrows="1" fold="1" page="1" pageScale="1" pageWidth="850" pageHeight="1100" math="0" shadow="0">
      <root>
        <mxCell id="0" />
        <mxCell id="1" parent="0" />
        <mxCell id="XpTnV5JnsKSAfhndCuvp-18" value="" style="edgeStyle=orthogonalEdgeStyle;rounded=0;orthogonalLoop=1;jettySize=auto;html=1;" edge="1" parent="1" source="XpTnV5JnsKSAfhndCuvp-1" target="XpTnV5JnsKSAfhndCuvp-2">
          <mxGeometry relative="1" as="geometry" />
        </mxCell>
        <mxCell id="XpTnV5JnsKSAfhndCuvp-1" value="Start" style="ellipse;whiteSpace=wrap;html=1;" vertex="1" parent="1">
          <mxGeometry x="260" y="30" width="100" height="60" as="geometry" />
        </mxCell>
        <mxCell id="XpTnV5JnsKSAfhndCuvp-19" value="" style="edgeStyle=orthogonalEdgeStyle;rounded=0;orthogonalLoop=1;jettySize=auto;html=1;" edge="1" parent="1" source="XpTnV5JnsKSAfhndCuvp-2" target="XpTnV5JnsKSAfhndCuvp-3">
          <mxGeometry relative="1" as="geometry" />
        </mxCell>
        <mxCell id="XpTnV5JnsKSAfhndCuvp-2" value="try to get secure credentials" style="rounded=0;whiteSpace=wrap;html=1;fillColor=#f5f5f5;fontColor=#333333;strokeColor=#666666;" vertex="1" parent="1">
          <mxGeometry x="250" y="120" width="120" height="50" as="geometry" />
        </mxCell>
        <mxCell id="XpTnV5JnsKSAfhndCuvp-20" value="" style="edgeStyle=orthogonalEdgeStyle;rounded=0;orthogonalLoop=1;jettySize=auto;html=1;" edge="1" parent="1" source="XpTnV5JnsKSAfhndCuvp-3" target="XpTnV5JnsKSAfhndCuvp-4">
          <mxGeometry relative="1" as="geometry" />
        </mxCell>
        <mxCell id="XpTnV5JnsKSAfhndCuvp-3" value="use an assign activity to convert the password from secure string to string" style="rounded=0;whiteSpace=wrap;html=1;fillColor=#f5f5f5;fontColor=#333333;strokeColor=#666666;" vertex="1" parent="1">
          <mxGeometry x="240" y="230" width="150" height="60" as="geometry" />
        </mxCell>
        <mxCell id="XpTnV5JnsKSAfhndCuvp-4" value="Check if credentials are saved on the windows credentials manager" style="rounded=0;whiteSpace=wrap;html=1;fillColor=#dae8fc;strokeColor=#6c8ebf;" vertex="1" parent="1">
          <mxGeometry x="240" y="340" width="160" height="60" as="geometry" />
        </mxCell>
        <mxCell id="XpTnV5JnsKSAfhndCuvp-5" value="use input dialog activity to prompt user to enter their email and password" style="rounded=0;whiteSpace=wrap;html=1;fillColor=#f5f5f5;fontColor=#333333;strokeColor=#666666;" vertex="1" parent="1">
          <mxGeometry x="480" y="460" width="180" height="60" as="geometry" />
        </mxCell>
        <mxCell id="XpTnV5JnsKSAfhndCuvp-37" value="" style="edgeStyle=orthogonalEdgeStyle;rounded=0;orthogonalLoop=1;jettySize=auto;html=1;" edge="1" parent="1" source="XpTnV5JnsKSAfhndCuvp-6" target="XpTnV5JnsKSAfhndCuvp-7">
          <mxGeometry relative="1" as="geometry" />
        </mxCell>
        <mxCell id="XpTnV5JnsKSAfhndCuvp-6" value="check if the user has put in their email and password" style="rounded=0;whiteSpace=wrap;html=1;fillColor=#f5f5f5;fontColor=#333333;strokeColor=#666666;" vertex="1" parent="1">
          <mxGeometry x="490" y="580" width="180" height="60" as="geometry" />
        </mxCell>
        <mxCell id="XpTnV5JnsKSAfhndCuvp-7" value="terminate workflow" style="rounded=0;whiteSpace=wrap;html=1;fillColor=#f5f5f5;fontColor=#333333;strokeColor=#666666;" vertex="1" parent="1">
          <mxGeometry x="510" y="700" width="120" height="60" as="geometry" />
        </mxCell>
        <mxCell id="XpTnV5JnsKSAfhndCuvp-8" value="invoke the login workflow" style="rounded=0;whiteSpace=wrap;html=1;fillColor=#f5f5f5;fontColor=#333333;strokeColor=#666666;" vertex="1" parent="1">
          <mxGeometry x="150" y="580" width="140" height="60" as="geometry" />
        </mxCell>
        <mxCell id="XpTnV5JnsKSAfhndCuvp-27" value="" style="edgeStyle=orthogonalEdgeStyle;rounded=0;orthogonalLoop=1;jettySize=auto;html=1;" edge="1" parent="1" source="XpTnV5JnsKSAfhndCuvp-9" target="XpTnV5JnsKSAfhndCuvp-10">
          <mxGeometry relative="1" as="geometry" />
        </mxCell>
        <mxCell id="XpTnV5JnsKSAfhndCuvp-9" value="open ACME page on google chrome" style="rounded=0;whiteSpace=wrap;html=1;fillColor=#fff2cc;strokeColor=#d6b656;" vertex="1" parent="1">
          <mxGeometry x="160" y="710" width="120" height="60" as="geometry" />
        </mxCell>
        <mxCell id="XpTnV5JnsKSAfhndCuvp-28" value="" style="edgeStyle=orthogonalEdgeStyle;rounded=0;orthogonalLoop=1;jettySize=auto;html=1;" edge="1" parent="1" source="XpTnV5JnsKSAfhndCuvp-10" target="XpTnV5JnsKSAfhndCuvp-11">
          <mxGeometry relative="1" as="geometry" />
        </mxCell>
        <mxCell id="XpTnV5JnsKSAfhndCuvp-10" value="type the acquired email and the password into the email and password elements" style="rounded=0;whiteSpace=wrap;html=1;fillColor=#fff2cc;strokeColor=#d6b656;" vertex="1" parent="1">
          <mxGeometry x="70" y="830" width="190" height="60" as="geometry" />
        </mxCell>
        <mxCell id="XpTnV5JnsKSAfhndCuvp-29" value="" style="edgeStyle=orthogonalEdgeStyle;rounded=0;orthogonalLoop=1;jettySize=auto;html=1;" edge="1" parent="1" source="XpTnV5JnsKSAfhndCuvp-11" target="XpTnV5JnsKSAfhndCuvp-12">
          <mxGeometry relative="1" as="geometry" />
        </mxCell>
        <mxCell id="XpTnV5JnsKSAfhndCuvp-11" value="click on the login button" style="rounded=0;whiteSpace=wrap;html=1;fillColor=#fff2cc;strokeColor=#d6b656;" vertex="1" parent="1">
          <mxGeometry x="305" y="840" width="120" height="60" as="geometry" />
        </mxCell>
        <mxCell id="XpTnV5JnsKSAfhndCuvp-31" value="" style="edgeStyle=orthogonalEdgeStyle;rounded=0;orthogonalLoop=1;jettySize=auto;html=1;" edge="1" parent="1" source="XpTnV5JnsKSAfhndCuvp-12" target="XpTnV5JnsKSAfhndCuvp-14">
          <mxGeometry relative="1" as="geometry" />
        </mxCell>
        <mxCell id="XpTnV5JnsKSAfhndCuvp-12" value="hover over the user options" style="rounded=0;whiteSpace=wrap;html=1;fillColor=#fff2cc;strokeColor=#d6b656;" vertex="1" parent="1">
          <mxGeometry x="470" y="840" width="120" height="60" as="geometry" />
        </mxCell>
        <mxCell id="XpTnV5JnsKSAfhndCuvp-33" value="" style="edgeStyle=orthogonalEdgeStyle;rounded=0;orthogonalLoop=1;jettySize=auto;html=1;" edge="1" parent="1" source="XpTnV5JnsKSAfhndCuvp-13" target="XpTnV5JnsKSAfhndCuvp-15">
          <mxGeometry relative="1" as="geometry" />
        </mxCell>
        <mxCell id="XpTnV5JnsKSAfhndCuvp-13" value="click on the download client and support element" style="rounded=0;whiteSpace=wrap;html=1;fillColor=#fff2cc;strokeColor=#d6b656;" vertex="1" parent="1">
          <mxGeometry x="640" y="940" width="120" height="60" as="geometry" />
        </mxCell>
        <mxCell id="XpTnV5JnsKSAfhndCuvp-32" value="" style="edgeStyle=orthogonalEdgeStyle;rounded=0;orthogonalLoop=1;jettySize=auto;html=1;" edge="1" parent="1" source="XpTnV5JnsKSAfhndCuvp-14" target="XpTnV5JnsKSAfhndCuvp-13">
          <mxGeometry relative="1" as="geometry" />
        </mxCell>
        <mxCell id="XpTnV5JnsKSAfhndCuvp-14" value="click on the download button at the legacy system" style="rounded=0;whiteSpace=wrap;html=1;fillColor=#fff2cc;strokeColor=#d6b656;" vertex="1" parent="1">
          <mxGeometry x="650" y="840" width="120" height="60" as="geometry" />
        </mxCell>
        <mxCell id="XpTnV5JnsKSAfhndCuvp-34" value="" style="edgeStyle=orthogonalEdgeStyle;rounded=0;orthogonalLoop=1;jettySize=auto;html=1;" edge="1" parent="1" source="XpTnV5JnsKSAfhndCuvp-15" target="XpTnV5JnsKSAfhndCuvp-16">
          <mxGeometry relative="1" as="geometry" />
        </mxCell>
        <mxCell id="XpTnV5JnsKSAfhndCuvp-15" value="click on the logout button" style="rounded=0;whiteSpace=wrap;html=1;fillColor=#fff2cc;strokeColor=#d6b656;" vertex="1" parent="1">
          <mxGeometry x="460" y="940" width="120" height="60" as="geometry" />
        </mxCell>
        <mxCell id="XpTnV5JnsKSAfhndCuvp-35" value="" style="edgeStyle=orthogonalEdgeStyle;rounded=0;orthogonalLoop=1;jettySize=auto;html=1;" edge="1" parent="1" source="XpTnV5JnsKSAfhndCuvp-16" target="XpTnV5JnsKSAfhndCuvp-17">
          <mxGeometry relative="1" as="geometry" />
        </mxCell>
        <mxCell id="XpTnV5JnsKSAfhndCuvp-16" value="click on the close window button&amp;nbsp;" style="rounded=0;whiteSpace=wrap;html=1;fillColor=#fff2cc;strokeColor=#d6b656;" vertex="1" parent="1">
          <mxGeometry x="290" y="940" width="120" height="60" as="geometry" />
        </mxCell>
        <mxCell id="XpTnV5JnsKSAfhndCuvp-17" value="eng" style="ellipse;whiteSpace=wrap;html=1;" vertex="1" parent="1">
          <mxGeometry x="80" y="940" width="100" height="60" as="geometry" />
        </mxCell>
        <mxCell id="XpTnV5JnsKSAfhndCuvp-23" value="" style="endArrow=classic;html=1;rounded=0;exitX=0.413;exitY=1.05;exitDx=0;exitDy=0;exitPerimeter=0;" edge="1" parent="1" source="XpTnV5JnsKSAfhndCuvp-4">
          <mxGeometry width="50" height="50" relative="1" as="geometry">
            <mxPoint x="400" y="550" as="sourcePoint" />
            <mxPoint x="220" y="570" as="targetPoint" />
          </mxGeometry>
        </mxCell>
        <mxCell id="XpTnV5JnsKSAfhndCuvp-24" value="" style="endArrow=classic;html=1;rounded=0;exitX=0.438;exitY=1.033;exitDx=0;exitDy=0;exitPerimeter=0;entryX=-0.006;entryY=0.383;entryDx=0;entryDy=0;entryPerimeter=0;" edge="1" parent="1" source="XpTnV5JnsKSAfhndCuvp-4" target="XpTnV5JnsKSAfhndCuvp-5">
          <mxGeometry width="50" height="50" relative="1" as="geometry">
            <mxPoint x="400" y="550" as="sourcePoint" />
            <mxPoint x="450" y="500" as="targetPoint" />
          </mxGeometry>
        </mxCell>
        <mxCell id="XpTnV5JnsKSAfhndCuvp-25" value="" style="endArrow=classic;html=1;rounded=0;entryX=0.5;entryY=0;entryDx=0;entryDy=0;exitX=0.572;exitY=1.05;exitDx=0;exitDy=0;exitPerimeter=0;" edge="1" parent="1" source="XpTnV5JnsKSAfhndCuvp-5" target="XpTnV5JnsKSAfhndCuvp-6">
          <mxGeometry width="50" height="50" relative="1" as="geometry">
            <mxPoint x="400" y="650" as="sourcePoint" />
            <mxPoint x="450" y="600" as="targetPoint" />
          </mxGeometry>
        </mxCell>
        <mxCell id="XpTnV5JnsKSAfhndCuvp-26" value="" style="endArrow=classic;html=1;rounded=0;entryX=0.358;entryY=-0.033;entryDx=0;entryDy=0;entryPerimeter=0;exitX=0.4;exitY=1.1;exitDx=0;exitDy=0;exitPerimeter=0;" edge="1" parent="1" source="XpTnV5JnsKSAfhndCuvp-8" target="XpTnV5JnsKSAfhndCuvp-9">
          <mxGeometry width="50" height="50" relative="1" as="geometry">
            <mxPoint x="400" y="650" as="sourcePoint" />
            <mxPoint x="450" y="600" as="targetPoint" />
          </mxGeometry>
        </mxCell>
        <mxCell id="XpTnV5JnsKSAfhndCuvp-36" value="" style="endArrow=classic;html=1;rounded=0;entryX=1;entryY=0.5;entryDx=0;entryDy=0;exitX=0;exitY=0.5;exitDx=0;exitDy=0;" edge="1" parent="1" source="XpTnV5JnsKSAfhndCuvp-6" target="XpTnV5JnsKSAfhndCuvp-8">
          <mxGeometry width="50" height="50" relative="1" as="geometry">
            <mxPoint x="400" y="650" as="sourcePoint" />
            <mxPoint x="450" y="600" as="targetPoint" />
          </mxGeometry>
        </mxCell>
        <mxCell id="XpTnV5JnsKSAfhndCuvp-38" value="&lt;b&gt;NO&lt;/b&gt;" style="text;html=1;strokeColor=none;fillColor=none;align=center;verticalAlign=middle;whiteSpace=wrap;rounded=0;" vertex="1" parent="1">
          <mxGeometry x="400" y="420" width="60" height="30" as="geometry" />
        </mxCell>
        <mxCell id="XpTnV5JnsKSAfhndCuvp-39" value="&lt;b&gt;yes&lt;/b&gt;" style="text;html=1;strokeColor=none;fillColor=none;align=center;verticalAlign=middle;whiteSpace=wrap;rounded=0;" vertex="1" parent="1">
          <mxGeometry x="210" y="460" width="60" height="30" as="geometry" />
        </mxCell>
        <mxCell id="XpTnV5JnsKSAfhndCuvp-40" value="&lt;b&gt;YES&lt;/b&gt;" style="text;html=1;align=center;verticalAlign=middle;resizable=0;points=[];autosize=1;strokeColor=none;fillColor=none;" vertex="1" parent="1">
          <mxGeometry x="345" y="588" width="50" height="30" as="geometry" />
        </mxCell>
        <mxCell id="XpTnV5JnsKSAfhndCuvp-41" value="&lt;b&gt;NO&lt;/b&gt;" style="text;html=1;strokeColor=none;fillColor=none;align=center;verticalAlign=middle;whiteSpace=wrap;rounded=0;" vertex="1" parent="1">
          <mxGeometry x="570" y="660" width="60" height="30" as="geometry" />
        </mxCell>
        <mxCell id="XpTnV5JnsKSAfhndCuvp-42" value="" style="rounded=0;whiteSpace=wrap;html=1;fillColor=#f5f5f5;fontColor=#333333;strokeColor=#666666;" vertex="1" parent="1">
          <mxGeometry x="545" y="70" width="50" height="60" as="geometry" />
        </mxCell>
        <mxCell id="XpTnV5JnsKSAfhndCuvp-43" value="Text" style="text;html=1;strokeColor=none;fillColor=none;align=center;verticalAlign=middle;whiteSpace=wrap;rounded=0;" vertex="1" parent="1">
          <mxGeometry x="390" y="190" width="60" height="30" as="geometry" />
        </mxCell>
        <mxCell id="XpTnV5JnsKSAfhndCuvp-44" value="&lt;b&gt;&lt;u&gt;KEY&lt;/u&gt;&lt;/b&gt;" style="text;html=1;align=center;verticalAlign=middle;resizable=0;points=[];autosize=1;strokeColor=none;fillColor=none;" vertex="1" parent="1">
          <mxGeometry x="640" y="40" width="50" height="30" as="geometry" />
        </mxCell>
        <mxCell id="XpTnV5JnsKSAfhndCuvp-45" value="Activities using internal app" style="text;html=1;strokeColor=none;fillColor=none;align=center;verticalAlign=middle;whiteSpace=wrap;rounded=0;" vertex="1" parent="1">
          <mxGeometry x="615" y="85" width="155" height="30" as="geometry" />
        </mxCell>
        <mxCell id="XpTnV5JnsKSAfhndCuvp-46" value="" style="rounded=0;whiteSpace=wrap;html=1;fillColor=#dae8fc;strokeColor=#6c8ebf;" vertex="1" parent="1">
          <mxGeometry x="545" y="160" width="50" height="60" as="geometry" />
        </mxCell>
        <mxCell id="XpTnV5JnsKSAfhndCuvp-47" value="Activity using internal app and windows credential manager" style="text;html=1;strokeColor=none;fillColor=none;align=center;verticalAlign=middle;whiteSpace=wrap;rounded=0;" vertex="1" parent="1">
          <mxGeometry x="580" y="170" width="210" height="30" as="geometry" />
        </mxCell>
        <mxCell id="XpTnV5JnsKSAfhndCuvp-48" value="" style="rounded=0;whiteSpace=wrap;html=1;fillColor=#fff2cc;strokeColor=#d6b656;" vertex="1" parent="1">
          <mxGeometry x="550" y="250" width="45" height="60" as="geometry" />
        </mxCell>
        <mxCell id="XpTnV5JnsKSAfhndCuvp-49" value="Activities using internal application and chrome web browser" style="text;html=1;strokeColor=none;fillColor=none;align=center;verticalAlign=middle;whiteSpace=wrap;rounded=0;" vertex="1" parent="1">
          <mxGeometry x="610" y="260" width="210" height="30" as="geometry" />
        </mxCell>
      </root>
    </mxGraphModel>
  </diagram>
</mxfile>
